<?xml version="1.0" encoding="UTF-8"?><svg id="a" xmlns="http://www.w3.org/2000/svg" viewBox="0 0 383.17 383.14"><defs><style>.b{fill:#034efc;}</style></defs><path class="b" d="M0,217.77c1.85-4.62,1.58-9.63,2.67-14.41,14.74-64.21,54.1-104.72,118.05-119.8,37.05-8.74,72.7-2.05,106.02,16.56,2.68,1.5,2.75,2.53,1.22,4.88-3.26,5-6.4,10.1-9.28,15.32-1.31,2.37-2.26,2.33-4.47,1.07-21.66-12.33-45.02-17.91-69.87-16.45-54.05,3.17-99.78,39.84-114.88,91.79-20.48,70.45,24.74,145.02,96.61,159.31,68.94,13.71,135.85-30.37,149.79-99.04,6.29-30.96,1.44-60.43-14.08-88.01-1.23-2.19-1.3-3.14,1.04-4.45,5.43-3.03,10.72-6.31,15.96-9.66,1.84-1.18,2.7-1.16,3.87,.89,10.74,18.72,17.42,38.79,19.53,60.24,3.5,35.58-4.18,68.71-24.04,98.46-25.5,38.19-61.23,60.72-106.85,67.33-2.47,.36-5.14-.12-7.43,1.32h-26.19c-.3-1.01-1.17-.7-1.85-.78-7.42-.85-14.85-1.87-21.99-3.99-59.96-17.78-97.25-56.95-111.1-118.15-1.11-4.89-.9-10.01-2.74-14.76v-27.69Z"/><path class="b" d="M152.53,207.18c4.79,2.74,7.57-1.53,10.78-4.75,35.06-35.12,70.11-70.26,105.23-105.33,1.78-1.78,2.25-3.34,1.83-5.85-1.7-10.07-3.08-20.19-4.58-30.29-.69-4.62,.5-8.58,3.86-11.93,15.01-14.97,29.98-29.97,44.98-44.96,3.65-3.65,7.92-5.06,12.95-3.37,4.95,1.67,7.74,5.13,8.51,10.32,1.4,9.48,3,18.94,4.29,28.44,.31,2.31,1.08,3.02,3.39,3.33,9.62,1.29,19.21,2.89,28.81,4.34,4.63,.7,8.34,2.66,9.81,7.42,1.54,4.98,1,9.73-2.79,13.54-15.11,15.22-30.32,30.35-45.48,45.52-3.35,3.35-7.37,4.47-11.98,3.75-10.21-1.6-20.43-3.16-30.62-4.87-2.3-.38-3.88,.06-5.59,1.78-36.05,36.25-72.16,72.44-108.31,108.59-1.64,1.64-2.14,3.1-1.86,5.48,1.59,13.37-7.03,25.2-19.74,27.46-12.94,2.31-25.13-5.64-28.37-18.51-3.85-15.29,8.13-30.31,24.9-30.14ZM315.28,38.01c-8.14,8.2-15.65,15.81-23.23,23.35-1.05,1.05-1.05,2.14-.87,3.39,1.03,6.89,2.07,13.78,3.05,20.68,.27,1.89,.82,2.93,3.09,3.22,7.03,.89,14.02,2.1,21.01,3.31,1.83,.32,3.01-.27,4.24-1.53,4.7-4.81,9.43-9.6,14.27-14.27,2.63-2.54,5.51-4.82,8.28-7.22l-.9-1.16c-5.24-.83-10.5-1.58-15.72-2.51-6.17-1.1-9.53-4.57-10.61-10.85-.88-5.12-1.64-10.25-2.61-16.4Z"/><path class="b" d="M155.53,315.8c-54.13-.1-93.16-43.78-87.6-93.3,4.93-43.95,42.55-76.46,86.79-74.93,6.86,.24,13.6,1.4,20.23,3.26,2.16,.61,2.76,1.25,1.92,3.57-2.12,5.84-4.06,11.75-5.75,17.73-.75,2.67-1.99,2.71-4.23,2.11-31.91-8.57-64.25,10.15-72.96,42.16-8.97,32.96,12.17,66.8,46.07,73.75,32.9,6.75,65.77-16.52,70.39-49.72,1.19-8.53,.8-16.93-1.74-25.12-.84-2.7,.09-3.38,2.3-4.09,5.68-1.8,11.37-3.62,16.93-5.76,2.55-.98,3.48-.66,4.25,2.08,7.35,26.37,3.51,50.98-12.45,73.14-16.68,23.17-39.94,34.43-64.17,35.12Z"/></svg>