<?xml version="1.0" encoding="UTF-8"?><svg id="a" xmlns="http://www.w3.org/2000/svg" viewBox="0 0 1699.86 452.57"><defs><style>.b{letter-spacing:-.04em;}.c{letter-spacing:-.02em;}.d,.e{fill:#034efc;}.e{font-family:Arial-Black, Arial Black;font-size:280px;}.f{letter-spacing:.02em;}</style></defs><g><path class="d" d="M0,229.43c1.95-4.87,1.66-10.15,2.81-15.18,15.53-67.64,57-110.33,124.37-126.22,39.04-9.21,76.59-2.16,111.69,17.45,2.82,1.58,2.9,2.67,1.28,5.14-3.44,5.26-6.74,10.64-9.78,16.14-1.38,2.49-2.38,2.45-4.71,1.13-22.82-12.99-47.43-18.87-73.61-17.33-56.95,3.34-105.12,41.97-121.03,96.7-21.58,74.22,26.07,152.78,101.79,167.84,72.63,14.44,143.12-32,157.81-104.34,6.62-32.62,1.52-63.66-14.83-92.73-1.3-2.31-1.37-3.31,1.1-4.69,5.72-3.19,11.3-6.65,16.82-10.17,1.94-1.24,2.84-1.23,4.08,.94,11.31,19.73,18.35,40.87,20.57,63.47,3.69,37.49-4.4,72.39-25.33,103.74-26.86,40.24-64.51,63.97-112.57,70.93-2.6,.38-5.41-.13-7.83,1.39h-27.59c-.31-1.06-1.24-.74-1.95-.82-7.82-.9-15.64-1.97-23.17-4.21-63.17-18.73-102.45-60-117.05-124.48-1.17-5.15-.94-10.55-2.89-15.55v-29.17Z"/><path class="d" d="M160.7,218.27c5.05,2.89,7.98-1.62,11.36-5,36.94-37,73.87-74.02,110.86-110.97,1.88-1.87,2.37-3.52,1.92-6.16-1.79-10.61-3.24-21.27-4.83-31.91-.73-4.87,.52-9.03,4.06-12.56,15.82-15.77,31.59-31.58,47.39-47.37,3.85-3.85,8.35-5.33,13.65-3.55,5.22,1.76,8.15,5.4,8.96,10.87,1.48,9.99,3.16,19.96,4.52,29.96,.33,2.43,1.14,3.18,3.57,3.51,10.14,1.36,20.24,3.04,30.35,4.57,4.88,.74,8.78,2.81,10.34,7.82,1.63,5.25,1.05,10.25-2.94,14.27-15.92,16.04-31.94,31.97-47.91,47.95-3.53,3.53-7.77,4.71-12.62,3.95-10.76-1.69-21.52-3.33-32.26-5.13-2.42-.41-4.09,.06-5.89,1.88-37.98,38.19-76.02,76.32-114.11,114.4-1.73,1.73-2.25,3.27-1.96,5.78,1.67,14.08-7.41,26.54-20.8,28.94-13.64,2.43-26.48-5.95-29.89-19.5-4.05-16.11,8.57-31.93,26.23-31.75ZM332.16,40.04c-8.58,8.64-16.49,16.65-24.47,24.6-1.11,1.1-1.11,2.25-.91,3.57,1.08,7.26,2.18,14.52,3.21,21.79,.28,1.99,.87,3.09,3.25,3.39,7.41,.94,14.77,2.21,22.13,3.48,1.93,.33,3.17-.29,4.47-1.62,4.95-5.07,9.93-10.11,15.03-15.03,2.77-2.68,5.81-5.08,8.72-7.61l-.95-1.22c-5.52-.87-11.06-1.66-16.57-2.65-6.5-1.16-10.04-4.81-11.17-11.43-.93-5.39-1.72-10.8-2.75-17.28Z"/><path class="d" d="M163.86,332.71c-57.03-.11-98.15-46.13-92.29-98.3,5.2-46.3,44.83-80.55,91.43-78.94,7.23,.25,14.33,1.47,21.31,3.43,2.27,.64,2.91,1.32,2.03,3.76-2.23,6.15-4.28,12.38-6.06,18.68-.79,2.81-2.09,2.86-4.45,2.23-33.61-9.02-67.69,10.69-76.86,44.41-9.45,34.72,12.82,70.38,48.53,77.7,34.66,7.11,69.29-17.41,74.16-52.39,1.25-8.99,.84-17.83-1.83-26.46-.88-2.85,.09-3.57,2.43-4.31,5.99-1.9,11.98-3.82,17.84-6.06,2.69-1.03,3.67-.7,4.48,2.19,7.74,27.78,3.7,53.71-13.11,77.06-17.58,24.41-42.08,36.27-67.6,37.01Z"/></g><text class="e" transform="translate(376.2 366.71)"><tspan x="0" y="0">On</tspan><tspan class="b" x="420" y="0">T</tspan><tspan class="f" x="610.18" y="0">r</tspan><tspan x="739.24" y="0">a</tspan><tspan class="c" x="926" y="0">c</tspan><tspan x="1107.97" y="0">k</tspan></text></svg>