<?xml version="1.0" encoding="UTF-8"?><svg id="a" xmlns="http://www.w3.org/2000/svg" viewBox="0 0 98.53 75.24"><defs><style>.b{fill:#034efc;}</style></defs><path class="b" d="M98.53,72.66c-1.58,2.57-2.38,2.91-5.44,2.3-.38-.08-.75-.15-1.13-.23-8.93-1.85-17.94-2.52-27.04-1.65-2.54,.25-5.06,.67-7.58,1.28-.09-.39,.24-.51,.42-.67,2.9-2.54,6.21-4.37,9.83-5.67,5.03-1.81,10.23-2.54,15.55-2.64,3.78-.07,6.62-1.72,8.38-5.11,.76-1.46,.92-3.04,.92-4.66,0-14.1,0-28.21-.03-42.31,0-.97,.27-1.22,1.17-1.12,.73,.09,1.49-.04,2.2,.1,1.44,.28,2.22,1.35,2.75,2.63v57.73Z"/><path class="b" d="M46.49,71.53c-2.18-2.18-4.44-4-6.96-5.5-4.65-2.77-9.69-4.43-15.01-5.31-3.04-.5-6.1-.75-9.18-.8-2.4-.04-3.78-1.51-3.78-3.91,0-17.38,0-34.77,0-52.15,0-2.52,1.57-3.93,4.1-3.86,5.02,.14,9.96,.76,14.73,2.42,6.39,2.22,11.67,5.92,15.41,11.65,.51,.78,.75,1.62,.76,2.53,0,18.15,0,36.31,0,54.46,0,.09-.02,.18-.05,.47Z"/><path class="b" d="M51.99,71.54v-1.24c0-17.35,.05-34.7-.05-52.05-.01-2.55,.86-4.49,2.37-6.36,4.87-6.01,11.34-9.21,18.74-10.81C76.38,.35,79.77,.09,83.17,0c2.33-.06,3.81,1.48,3.81,3.96,0,14.98,0,29.96,0,44.93,0,2.34,0,4.68,0,7.02,0,2.57-1.38,3.98-3.97,4.02-4.76,.07-9.45,.64-14.05,1.9-6.25,1.73-11.83,4.64-16.46,9.25-.11,.11-.23,.21-.51,.45Z"/><path class="b" d="M41.33,74.42c-1.94-.48-3.74-.81-5.56-1.06-5.58-.76-11.18-.82-16.79-.39-4.83,.37-9.6,1.12-14.33,2.15C1.88,75.72,0,74.14,0,71.29,0,52.92,0,34.55,0,16.17c0-2.58,1.38-3.95,3.98-3.97q2.12-.01,2.12,2.05c0,13.82,0,27.64,0,41.46,0,2.35,.52,4.5,2.06,6.34,1.72,2.06,3.9,3.18,6.57,3.29,3.3,.14,6.59,.3,9.84,.95,5.59,1.11,10.82,3.06,15.33,6.67,.48,.39,1.03,.72,1.44,1.46Z"/></svg>