<?xml version="1.0" encoding="UTF-8"?><svg id="a" xmlns="http://www.w3.org/2000/svg" viewBox="0 0 118.84 118.9"><path d="M0,64.36v-9.75c.36-.13,.22-.45,.24-.69,.28-2.61,.64-5.22,1.27-7.77C5.95,28.3,16.28,15.02,32.59,6.54,44.55,.32,57.3-1.42,70.51,1.13c15.99,3.09,28.7,11.48,37.92,24.88,8.94,12.99,12.05,27.44,9.62,43-1.78,11.38-6.62,21.41-14.33,29.97-9.54,10.6-21.38,17.05-35.51,19.26-1.54,.24-3.11,.2-4.62,.65h-9.05c-.13-.37-.45-.22-.69-.24-11.53-1.18-21.94-5.22-31.02-12.44C10.51,96.41,3.09,83.73,.63,68.15c-.2-1.27-.1-2.58-.63-3.79Zm64.34-19.96c0-4.79,.01-9.59,0-14.38,0-2.32-1.16-4.07-3.1-4.84-3.32-1.32-6.74,1.09-6.75,4.82-.02,10.59,0,21.19-.02,31.78,0,1.61,.62,2.89,1.75,4.01,5.67,5.64,11.32,11.31,16.98,16.97,2.49,2.49,4.96,4.99,7.47,7.46,1.38,1.36,3.06,1.8,4.91,1.24,1.84-.56,3.02-1.85,3.42-3.74,.41-1.91-.29-3.46-1.64-4.81-7.45-7.43-14.87-14.87-22.32-22.29-.5-.5-.72-.99-.71-1.71,.03-4.83,.02-9.67,.02-14.5Z"/></svg>