<?xml version="1.0" encoding="UTF-8"?><svg id="a" xmlns="http://www.w3.org/2000/svg" viewBox="0 0 119.68 111.88"><defs><style>.b{fill:#020202;}</style></defs><path d="M59.84,32.48c19.47,0,38.94,.01,58.4-.03,1.24,0,1.44,.35,1.44,1.5-.04,21.82-.03,43.64-.03,65.46,0,6.34-4.29,11.3-10.6,12.27-.94,.14-1.88,.21-2.83,.21-31.8,0-63.6,0-95.4,0-6.4,0-10.49-3.94-10.77-10.37-.03-.58-.02-1.15-.02-1.73C.04,77.83,.05,55.89,0,33.95c0-1.3,.38-1.5,1.56-1.5,19.43,.04,38.85,.03,58.28,.03Zm-9.1,54.92c0,1.52-.02,3.05,0,4.57,.03,1.93,1.15,3.09,3.07,3.11,3.09,.03,6.18,.03,9.27,0,1.8-.02,2.83-.9,2.88-2.69,.1-3.25,.09-6.51,0-9.76-.05-1.65-1.12-2.72-2.76-2.77-3.21-.09-6.42-.09-9.63,0-1.78,.05-2.79,1.27-2.82,3.1-.02,1.48,0,2.97,0,4.45Zm45.06-33.31h0c0-1.48,0-2.97,0-4.45,0-.08,0-.16,0-.25-.05-1.91-1.18-3.07-3.09-3.09-3.01-.03-6.01-.02-9.02,0-1.88,.01-3.1,1.06-3.15,2.91-.08,3.13-.07,6.26,0,9.39,.04,1.72,1.08,2.86,2.76,2.91,3.29,.1,6.59,.09,9.88-.01,1.72-.06,2.57-1.1,2.61-2.83,.04-1.52,0-3.05,0-4.57Zm0,33.45c0-1.44,0-2.88,0-4.32,0-.08,0-.16,0-.25-.05-1.92-1.13-3.11-3.05-3.15-3.05-.06-6.1-.06-9.14,0-1.88,.03-3.03,1.15-3.07,3.01-.07,3.09-.07,6.18,0,9.27,.04,1.86,1.24,2.96,3.1,2.98,3.05,.03,6.1,.03,9.14,0,2.01-.02,2.99-1.04,3.02-3.08,.02-1.48,0-2.97,0-4.45ZM58.42,46.3c-1.44,0-2.88,0-4.32,0-.08,0-.16,0-.25,0-1.93,.05-3.08,1.15-3.1,3.07-.03,3.05-.03,6.1,0,9.14,.02,1.75,1.03,2.95,2.78,3,3.29,.1,6.59,.08,9.88-.02,1.59-.05,2.48-.92,2.53-2.49,.1-3.33,.11-6.67,.01-10-.05-1.67-1.27-2.66-2.95-2.69-1.52-.03-3.05,0-4.57,0ZM21.3,87.43c0,1.52-.02,3.05,0,4.57,.03,1.9,1.18,3.06,3.11,3.08,2.93,.03,5.85,.03,8.78,0,1.95-.02,3.31-1.25,3.37-3.21,.09-3.05,.07-6.1,0-9.15-.05-1.71-1.13-2.83-2.81-2.87-3.21-.09-6.43-.09-9.64,0-1.72,.05-2.76,1.27-2.79,3-.03,1.52,0,3.05,0,4.57Zm7.67-41.13c-1.52,0-3.05-.02-4.57,0-1.92,.03-3.08,1.16-3.09,3.08-.03,3.01-.02,6.02,0,9.02,.01,1.88,1.05,3.08,2.93,3.13,3.05,.09,6.1,.08,9.14-.01,1.82-.05,3.09-1.22,3.15-3.02,.12-3.17,.09-6.35-.02-9.51-.06-1.67-1.28-2.65-2.96-2.69-1.52-.03-3.05,0-4.57,0Z"/><path class="b" d="M59.67,24.68c-19.39,0-38.77-.02-58.16,.04-1.31,0-1.53-.38-1.5-1.57,.08-4,0-8,.04-12C.1,7.47,1.29,4.27,4.25,1.92,5.85,.65,7.73,.07,9.77,.06c3.38-.01,6.76,.03,10.15-.03,.86-.01,1.01,.29,1,1.05-.04,3.34-.04,6.68,0,10.02,.02,1.84,1.1,3.25,2.71,3.71,1.46,.42,3.13-.17,4.06-1.43,.57-.77,.68-1.66,.68-2.58,0-3.18,.03-6.35-.02-9.53-.01-.91,.14-1.26,1.18-1.25,19.1,.04,38.19,.04,57.29,0,1.04,0,1.19,.34,1.18,1.25-.05,3.26-.03,6.52-.01,9.77,0,1.74,.81,2.99,2.44,3.65,1.35,.54,2.92,.17,3.98-.9,.85-.86,1.06-1.92,1.05-3.06,0-3.26,0-6.52,0-9.78,0-.42-.16-.94,.61-.91,4.24,.13,8.5-.33,12.73,.25,5.11,.7,9.58,4.91,10.39,9.62,.28,1.63,.1,3.29,.11,4.94,.02,2.85-.04,5.69,.03,8.54,.02,1-.19,1.31-1.26,1.31-7.88-.05-15.76-.03-23.63-.03H59.67Z"/></svg>