<?xml version="1.0" encoding="UTF-8"?><svg id="a" xmlns="http://www.w3.org/2000/svg" viewBox="0 0 99.37 99.31"><path d="M42.23,49.65c0,12.89,0,25.78,0,38.67,0,1.17-.05,2.32-.21,3.48-.56,4.12-2.91,6.58-7.01,7.23-.95,.15-1.93,.26-2.89,.27-7.38,.02-14.75,0-22.13,.01-1.05,0-2.1-.12-3.12-.33-4.22-.88-6.45-3.51-6.78-7.97-.07-.93-.08-1.86-.08-2.79C0,62.51,0,36.81,0,11.11c0-1.32,0-2.63,.24-3.94C.96,3.17,3.2,.91,7.19,.28,8.15,.13,9.12,.02,10.09,.02,17.42,0,24.76,0,32.1,0c1.25,0,2.47,.15,3.68,.45,3.68,.92,5.69,3.17,6.22,6.93,.17,1.24,.22,2.47,.22,3.71,0,12.85,0,25.7,0,38.55Z"/><path d="M99.34,32.27c0,7.53,0,15.06,0,22.59,0,1.05-.11,2.1-.34,3.12-.83,3.69-3.25,5.8-7.23,6.34-1.19,.16-2.39,.25-3.6,.25-6.64,0-13.28,0-19.91,0-1.56,0-3.1-.12-4.62-.47-3.58-.81-5.71-3.12-6.26-6.77-.17-1.15-.25-2.31-.25-3.48,0-14.4,0-28.8,0-43.2,0-1.29,.06-2.57,.32-3.82,.76-3.76,3.05-5.94,6.9-6.55,.99-.16,2-.27,3.01-.27,7.3-.02,14.6-.01,21.89-.01,1.13,0,2.25,.11,3.35,.36,4.26,.95,6.51,3.6,6.68,8.16,.14,3.8,.08,7.61,.09,11.41,.01,4.11,0,8.23,0,12.34h-.02Z"/></svg>