<?xml version="1.0" encoding="UTF-8"?><svg id="a" xmlns="http://www.w3.org/2000/svg" viewBox="0 0 108.11 121.13"><defs><style>.b{fill:#034efc;}</style></defs><path class="b" d="M0,60.5C0,45.84-.01,31.18,.02,16.52,.03,8.44,4.85,2.3,12.48,.53c.63-.15,1.27-.26,1.91-.29,5.36-.19,10.74-.41,16.08,.07,7.74,.7,13.82,7.31,14,15.08,.12,5.02,.04,10.04,.04,15.05,0,24.75,.01,49.49,0,74.24,0,7.97-4.94,14.2-12.55,15.94-.39,.09-.78,.16-1.17,.19-5.56,.36-11.13,.48-16.67,0-7.8-.66-13.95-7.19-14.02-15.01-.14-15.1-.04-30.21-.04-45.32H0Z"/><path class="b" d="M108.1,60.63c0,14.66,.02,29.32,0,43.98-.02,8.13-4.92,14.33-12.6,16.05-.58,.13-1.18,.22-1.77,.24-5.36,.19-10.74,.41-16.08-.07-7.79-.7-13.87-7.37-14.01-15.23-.11-6.21-.03-12.42-.03-18.63,0-23.5-.01-47.01,0-70.51,0-7.97,4.94-14.2,12.55-15.95,.34-.08,.68-.15,1.03-.17,5.61-.38,11.23-.49,16.82-.02,7.82,.66,13.95,7.17,14.03,15,.14,15.1,.04,30.21,.04,45.32h.03Z"/></svg>