<?xml version="1.0" encoding="UTF-8"?><svg id="a" xmlns="http://www.w3.org/2000/svg" viewBox="0 0 117.83 130.8"><defs><style>.b{fill:#034efc;}</style></defs><path class="b" d="M9.9,0h3.58c2.94,.61,5.73,1.62,8.35,3.13,28.87,16.58,57.75,33.14,86.63,49.71,2.07,1.19,4.02,2.54,5.7,4.26,4.6,4.72,4.9,10.62,.76,15.72-1.83,2.25-4.19,3.84-6.67,5.27-28.77,16.5-57.54,33-86.31,49.49-2.11,1.21-4.3,2.2-6.67,2.79-6.27,1.56-11.62-1.18-13.95-7.19C.26,120.48,0,117.65,0,114.79,0,81.83,0,48.88,0,15.93c0-1.75,.09-3.49,.43-5.21C1.18,7.02,2.68,3.78,5.98,1.63c1.21-.79,2.64-1.03,3.92-1.63Z"/></svg>