<?xml version="1.0" encoding="UTF-8"?><svg id="a" xmlns="http://www.w3.org/2000/svg" viewBox="0 0 102.46 94.53"><defs><style>.b{fill:#034efc;}</style></defs><path class="b" d="M0,52.64v-7.6c.32-.1,.2-.38,.22-.59,.49-4.05,1.43-7.99,3.1-11.72C8.97,20.04,18.72,11.78,31.5,6.83c.69-.27,1.37-.6,2.26-.67-.26,.41-.44,.72-.64,1.02-2.66,3.99-5.31,7.98-7.97,11.97-.33,.5-.65,1-.74,1.62-.33,2.36,1.69,4.16,4.01,3.5,4.22-1.2,8.43-2.45,12.63-3.71,.59-.18,.88-.08,1.22,.42,2.02,2.94,4.07,5.85,6.12,8.76,1.64,2.34,4.04,2.33,5.7-.03,2.03-2.89,4.06-5.77,6.07-8.68,.35-.51,.63-.69,1.29-.49,2.92,.92,5.86,1.77,8.79,2.63,1.21,.36,2.42,.72,3.64,1.06,1.53,.42,2.82,.01,3.64-1.13,.78-1.09,.79-2.46-.06-3.73-2.7-4.08-5.43-8.14-8.13-12.22-.19-.29-.51-.53-.49-.93,.07-.02,.14-.06,.19-.05,.19,.05,.39,.11,.57,.17,10.47,3.64,19.13,9.74,25.42,18.93,6.5,9.51,8.81,20.01,6.67,31.36-2.06,10.93-7.82,19.67-16.53,26.4-13.84,10.68-29.51,13.58-46.44,10.09-9.59-1.98-18-6.44-25.09-13.25-6.64-6.37-11.06-14-12.86-23.08-.27-1.38-.28-2.81-.75-4.15Z"/><path class="b" d="M67.18,15.72c-2.2-.65-4.39-1.3-6.6-1.95-1.78-.52-2.92-.13-3.98,1.38-1.65,2.34-3.31,4.67-4.92,7.04-.39,.58-.56,.55-.94,0-1.6-2.34-3.23-4.64-4.86-6.96-1.13-1.6-2.24-1.98-4.14-1.43-2.17,.63-4.33,1.27-6.5,1.91v.03c-.29-.4,.14-.6,.29-.83,1.34-2.06,2.7-4.12,4.09-6.15,.71-1.04,.88-2.1,.49-3.31-.55-1.7-1.04-3.41-1.56-5.14,.5-.14,.75,.2,1.03,.38,3.2,2.03,6.4,4.06,9.58,6.13,1.39,.9,2.71,.9,4.09,0,3.21-2.07,6.44-4.12,9.67-6.18,.27-.17,.54-.34,1.02-.63-.57,1.92-1.01,3.61-1.58,5.27-.47,1.35-.26,2.51,.54,3.67,1.37,1.97,2.67,3.97,3.98,5.98,.15,.23,.58,.43,.28,.83v-.03Z"/><path class="b" d="M35.25,15.71l-.15-.04,.06-.06s.07,.08,.1,.12c0,0,0-.03,0-.03Z"/><path class="b" d="M67.18,15.75l.09-.13,.07,.05c-.05,.01-.1,.03-.15,.05,0,0,0,.04,0,.04Z"/></svg>