<?xml version="1.0" encoding="UTF-8"?><svg id="a" xmlns="http://www.w3.org/2000/svg" viewBox="0 0 119 115.15"><defs><style>.b{fill:#034efc;}</style></defs><path class="b" d="M16.32,21.79c2.95-3.99,6.68-6.96,10.39-9.93,4.65-3.72,9.93-6.27,15.46-8.36C48.91,.97,55.85-.21,63.05,.03c7.97,.27,15.49,2.2,22.75,5.45,11.47,5.15,19.92,13.46,26.14,24.27,5.76,10.02,7.7,20.76,6.88,32.17-.76,10.67-3.95,20.43-10.34,29.08-8.12,10.99-18.58,18.45-31.88,22.08-13.86,3.78-27.01,2.26-39.96-3.67-10.13-4.64-17.58-12.02-23.72-21.1-3.12-4.62-5.11-9.66-6.8-14.88-.38-1.18-.07-1.65,1.12-1.92,4.15-.95,8.28-1.99,12.41-3.01,2.77-.68,2.73-.68,3.83,1.97,3.92,9.49,9.82,17.28,18.94,22.41,4.57,2.57,9.56,3.7,14.61,4.32,8.71,1.07,17.11-.39,24.67-5,9.91-6.05,16.39-14.77,19-26.17,1.57-6.86,1.3-13.8-.95-20.38-3.64-10.65-10.21-19.18-20.6-24.06-15.92-7.48-33.96-4.1-45.89,7.69-1.49,1.47-3.06,2.87-4.22,4.85,4.06,1.73,8.15,3.46,12.22,5.21,1.7,.73,3.39,1.5,5.09,2.23,.74,.32,1.35,.76,1.22,1.64-.14,.94-.83,1.22-1.72,1.38-9.64,1.7-19.4,2.6-29.07,4.04-4.05,.61-8.12,1.01-12.18,1.57-.83,.11-1.62,.56-2.45,.7-1.43,.23-2.22-.28-2.17-1.92,.17-5.22,1.18-10.35,1.79-15.52,.62-5.3,1.4-10.57,2.05-15.87,.55-4.43,1.01-8.87,1.51-13.3,.09-.82,.48-1.47,1.32-1.59,.97-.14,1.4,.54,1.75,1.34,2.41,5.48,4.84,10.95,7.27,16.42,.17,.39,.36,.77,.63,1.33Z"/></svg>