<?xml version="1.0" encoding="UTF-8"?><svg id="a" xmlns="http://www.w3.org/2000/svg" viewBox="0 0 121.1 117.69"><defs><style>.b{fill:#034efc;}</style></defs><path class="b" d="M121.1,63.63c-.6,1.26-.46,2.66-.67,3.99-2.63,16.32-10.6,29.36-23.97,39.08-7.42,5.39-15.67,8.95-24.73,10.25-19.46,2.79-36.54-2.4-50.74-16.13-8.98-8.68-14.41-19.37-16.72-31.64-.39-2.09,.58-3.56,2.67-3.94,2.25-.41,4.5-.8,6.75-1.15,2.76-.43,3.95,.42,4.45,3.17,.49,2.68,1.21,5.29,2.23,7.81,5.02,12.36,13.68,21.13,26.19,25.81,11.38,4.26,22.78,3.91,33.92-1.02,8.76-3.88,15.59-10.05,20.45-18.28,3.51-5.94,5.46-12.41,6-19.32,.58-7.46-.58-14.62-3.65-21.42-5.56-12.28-14.74-20.62-27.61-24.77-16.79-5.42-35.9,0-47.36,13.39-.05,.06-.08,.13-.23,.38,1.22-.2,2.3-.36,3.38-.55,3.33-.59,6.67-1.17,10-1.79,3.07-.57,4.34,.32,4.85,3.36,.34,2.06,.71,4.11,1.09,6.16,.42,2.29-.57,3.72-2.87,4.13-11.4,2.01-22.79,4.03-34.19,6.06-2.38,.42-3.81-.54-4.23-2.91C4.12,32.87,2.1,21.44,.09,10c-.37-2.1,.46-3.51,2.53-3.94,2.5-.53,5.03-.97,7.56-1.34,2.07-.3,3.32,.79,3.71,3.02,.81,4.65,1.63,9.3,2.44,13.95,.49,.06,.6-.36,.81-.61C25.28,11.49,35.41,4.92,47.62,1.92c16.61-4.09,32.36-1.7,46.74,7.69,13.43,8.77,21.86,21.19,25.42,36.86,.52,2.31,.86,4.64,1.08,7,.02,.24-.13,.57,.24,.71v9.46Z"/></svg>