<?xml version="1.0" encoding="UTF-8"?><svg id="a" xmlns="http://www.w3.org/2000/svg" viewBox="0 0 94.9 108.38"><defs><style>.b{fill:#034efc;}.c{fill:#fdfdfd;}</style></defs><path class="b" d="M32.79,0h29c.54,.37,1.21,.41,1.75,.81,1.55,1.14,2.27,3.13,1.73,4.96-.59,1.97-2.24,3.23-4.43,3.27-2.68,.04-5.36,.04-8.04,0-.76-.01-.97,.23-.92,.95,.06,.88,.08,1.77,0,2.64-.09,.88,.19,1.2,1.1,1.31,8.93,1.01,16.9,4.39,23.93,9.97,.52,.41,.8,.4,1.26-.08,2.17-2.22,4.38-4.4,6.57-6.6,1.28-1.28,2.82-1.73,4.55-1.23,3.33,.95,4.35,4.99,1.89,7.54-2.17,2.26-4.41,4.47-6.66,6.66-.49,.47-.46,.74-.07,1.26,10.9,14.4,13.38,30.16,6.93,47.02-9.41,24.58-38.17,36.52-62.4,26.16C7.94,95.63-3.78,73.49,1.1,51.1c3.61-16.58,13.71-27.97,29.39-34.39,3.63-1.49,7.43-2.39,11.34-2.78,.79-.08,1.19-.29,1.1-1.2-.1-.91-.07-1.83,0-2.75,.05-.73-.17-.96-.92-.95-2.68,.05-5.36,.05-8.04,0-2.33-.04-4.18-1.58-4.53-3.68-.39-2.32,.8-4.31,3.08-5.14,.13-.05,.27-.05,.3-.22Zm19.1,47.35c0-3.7,0-7.4,0-11.11,0-2-.91-3.46-2.73-4.26-3.03-1.34-6.25,.87-6.26,4.31-.03,7.86,.02,15.73-.03,23.59-.01,1.78,.47,3.26,1.55,4.68,4.29,5.63,8.51,11.32,12.76,16.98,1.5,2,3.85,2.55,5.9,1.44,2.48-1.35,3.12-4.44,1.36-6.81-3.98-5.34-7.98-10.66-11.99-15.97-.41-.54-.58-1.07-.57-1.74,.02-3.7,.01-7.4,.01-11.11Z"/><path class="c" d="M51.89,47.35c0,3.7,.01,7.4-.01,11.11,0,.67,.16,1.2,.57,1.74,4.01,5.31,8.01,10.63,11.99,15.97,1.76,2.37,1.12,5.46-1.36,6.81-2.05,1.11-4.4,.56-5.9-1.44-4.26-5.66-8.47-11.35-12.76-16.98-1.08-1.42-1.56-2.89-1.55-4.68,.06-7.86,0-15.73,.03-23.59,.01-3.44,3.23-5.65,6.26-4.31,1.82,.8,2.73,2.26,2.73,4.26,0,3.7,0,7.4,0,11.11Z"/></svg>