<?xml version="1.0" encoding="UTF-8"?><svg id="a" xmlns="http://www.w3.org/2000/svg" viewBox="0 0 102.78 102.77"><defs><style>.b{fill:#fcfcfc;}</style></defs><path d="M0,51.39c0-8.47-.02-16.94,0-25.41C.06,13.17,8.45,2.98,21,.42,22.65,.08,24.34,0,26.03,0c16.9,0,33.81-.02,50.71,0,12.83,.02,23.05,8.4,25.61,20.92,.34,1.66,.43,3.34,.43,5.03,0,16.94,.03,33.88,0,50.83-.03,12.3-7.92,22.38-19.69,25.29-2.08,.51-4.19,.69-6.32,.69-16.9,0-33.81,.02-50.71,0-12.81-.02-23.05-8.42-25.61-20.92-.36-1.78-.43-3.58-.43-5.39,0-8.35,0-16.7,0-25.05Zm45.73,8c-3.75-3.41-7.45-6.8-11.18-10.16-2.42-2.18-5.6-2.08-7.6,.19-1.96,2.22-1.65,5.31,.75,7.48,4.93,4.48,9.87,8.96,14.8,13.44,2.54,2.3,5.65,2.17,7.83-.43,8.53-10.19,17.02-20.4,25.53-30.61,.91-1.09,1.37-2.37,1.2-3.79-.27-2.24-1.48-3.81-3.66-4.44-2.12-.61-3.98-.05-5.41,1.66-3.54,4.21-7.05,8.44-10.57,12.67-3.88,4.65-7.76,9.31-11.68,14Z"/><path class="b" d="M45.74,59.39c3.92-4.7,7.8-9.35,11.68-14,3.52-4.22,7.03-8.46,10.57-12.67,1.43-1.71,3.3-2.27,5.41-1.66,2.19,.63,3.39,2.2,3.66,4.44,.17,1.42-.29,2.7-1.2,3.79-8.5,10.21-17,20.42-25.53,30.61-2.18,2.61-5.29,2.73-7.83,.43-4.94-4.48-9.87-8.96-14.8-13.44-2.4-2.18-2.7-5.27-.75-7.48,2-2.27,5.18-2.37,7.6-.19,3.72,3.36,7.43,6.75,11.18,10.16Z"/></svg>