<?xml version="1.0" encoding="UTF-8"?><svg id="a" xmlns="http://www.w3.org/2000/svg" viewBox="0 0 102.78 102.77"><defs><style>.b{fill:#034efc;}.c{fill:#fff;}</style></defs><path class="b" d="M51.48,.01c8.47,0,16.94-.03,25.41,0,12.73,.06,22.92,8.49,25.44,20.96,.28,1.38,.41,2.78,.41,4.19,0,17.46,.1,34.93-.03,52.39-.09,11.82-8.2,21.72-19.69,24.53-2,.49-4.03,.68-6.08,.68-17.02,0-34.04,.03-51.07-.01-12.72-.04-22.92-8.5-25.45-20.96-.34-1.66-.42-3.34-.41-5.03,0-16.9-.02-33.8,0-50.7C.04,13.22,8.37,3.04,20.92,.44,22.7,.07,24.5,.01,26.31,.01c8.39,0,16.78,0,25.17,0Zm-5.19,71.9c1.9,.04,3.23-1,4.42-2.42,6.05-7.29,12.12-14.56,18.19-21.83,2.31-2.77,4.64-5.54,6.93-8.33,1.46-1.77,1.65-3.95,.61-5.84-1.04-1.88-3.04-2.87-5.27-2.59-1.63,.21-2.72,1.22-3.72,2.42-7,8.43-14.03,16.83-21.01,25.28-.61,.74-.89,.64-1.52,.06-3.48-3.22-6.98-6.41-10.51-9.57-2.3-2.06-5.47-1.9-7.42,.29-1.92,2.14-1.72,5.27,.52,7.32,5.07,4.63,10.15,9.24,15.24,13.85,.99,.9,2.15,1.38,3.56,1.35Z"/><path class="c" d="M46.3,71.91c-1.41,.03-2.57-.45-3.56-1.35-5.08-4.61-10.17-9.22-15.24-13.85-2.24-2.05-2.44-5.17-.52-7.32,1.95-2.19,5.12-2.35,7.42-.29,3.53,3.16,7.03,6.35,10.51,9.57,.62,.58,.91,.67,1.52-.06,6.98-8.44,14.01-16.85,21.01-25.28,1-1.21,2.09-2.22,3.72-2.42,2.23-.28,4.23,.7,5.27,2.59,1.04,1.89,.84,4.07-.61,5.84-2.29,2.79-4.62,5.56-6.93,8.33-6.06,7.28-12.14,14.54-18.19,21.83-1.18,1.42-2.52,2.46-4.42,2.42Z"/></svg>